<?xml version="1.0" encoding="iso-8859-1"?>
<!-- Generator: Adobe Illustrator 17.1.0, SVG Export Plug-In . SVG Version: 6.00 Build 0)  -->
<!DOCTYPE svg PUBLIC "-//W3C//DTD SVG 1.1//EN" "http://www.w3.org/Graphics/SVG/1.1/DTD/svg11.dtd">
<svg version="1.1" id="Capa_1" xmlns="http://www.w3.org/2000/svg" xmlns:xlink="http://www.w3.org/1999/xlink" x="0px" y="0px"
	 viewBox="0 0 487.866 487.866" style="enable-background:new 0 0 487.866 487.866;" xml:space="preserve">
<path d="M482.866,243.444h-72.203c1.063-0.471,1.946-1.279,2.467-2.333c0.609-1.232,0.684-2.661,0.207-3.951L374.941,133.4
	c-0.921-2.488-3.624-3.823-6.16-3.043l-24.386,7.502v-37.816c0-2.761-2.239-5-5-5h-21.837c-2.761,0-5,2.239-5,5v13.369h-24.974
	v-13.369c0-2.761-2.239-5-5-5h-52.375c-2.761,0-5,2.239-5,5v13.369h-11.837v-4.347c0-2.761-2.239-5-5-5h-32.454v-4.021
	c0-2.761-2.239-5-5-5h-52.375c-2.761,0-5,2.239-5,5v23.933H79.219c-2.761,0-5,2.239-5,5v114.469H5c-2.761,0-5,2.239-5,5v39.835
	c0,2.761,2.239,5,5,5h54.733v94.545c0,2.761,2.239,5,5,5h39.822c2.761,0,5-2.239,5-5v-94.545h267.434v94.545c0,2.761,2.239,5,5,5
	h39.822c2.761,0,5-2.239,5-5v-94.545h56.055c2.761,0,5-2.239,5-5v-39.835C487.866,245.683,485.627,243.444,482.866,243.444z
	 M367.203,141.304l34.919,94.368l-21.464,6.603l-34.919-94.368L367.203,141.304z M370.428,243.444h-26.033v-70.353L370.428,243.444z
	 M322.558,105.042h11.837v38.33c-0.226,0.83-0.214,1.702,0,2.54v97.531h-11.837V118.411V105.042z M312.558,123.411v120.033h-24.974
	V123.411H312.558z M235.209,105.042h42.375v13.369v125.033h-42.375V118.411V105.042z M225.209,123.411v120.033h-11.837V123.411
	H225.209z M203.372,114.063v4.347v125.033h-27.454v-129.38H203.372z M123.543,105.042h42.375v3.687
	c-0.008,0.113-0.034,0.22-0.034,0.334v134.38h-42.341V128.975V105.042z M84.219,133.975h29.324v109.469H84.219V133.975z
	 M79.219,253.444h39.324h52.341h0.034h37.454h21.837h52.375h34.974h21.837h38.201c0.004,0,0.008,0.001,0.013,0.001
	c0.004,0,0.009-0.001,0.013-0.001h100.244v14.961H10v-14.961H79.219z M99.555,382.824H69.733v-89.545h9.911v4.95
	c0,2.761,2.239,5,5,5s5-2.239,5-5v-4.95h9.911V382.824z M416.811,382.824h-29.822v-89.545h9.911v4.95c0,2.761,2.239,5,5,5
	s5-2.239,5-5v-4.95h9.911V382.824z M421.811,283.279h-19.795c-0.04-0.001-0.076-0.012-0.116-0.012c-0.04,0-0.077,0.011-0.116,0.012
	h-19.795H104.555H84.76c-0.04-0.001-0.076-0.012-0.116-0.012c-0.04,0-0.077,0.011-0.116,0.012H64.733H10v-4.874h467.866v4.874
	H421.811z M91.802,367.913c0,3.953-3.205,7.158-7.158,7.158c-3.953,0-7.158-3.205-7.158-7.158s3.205-7.158,7.158-7.158
	C88.598,360.755,91.802,363.959,91.802,367.913z M410.38,367.913c0,3.953-3.205,7.158-7.158,7.158c-3.953,0-7.158-3.205-7.158-7.158
	s3.205-7.158,7.158-7.158C407.175,360.755,410.38,363.959,410.38,367.913z M79.644,352.71v-34.468c0-2.761,2.239-5,5-5s5,2.239,5,5
	v34.468c0,2.761-2.239,5-5,5S79.644,355.471,79.644,352.71z M396.9,352.71v-34.468c0-2.761,2.239-5,5-5s5,2.239,5,5v34.468
	c0,2.761-2.239,5-5,5S396.9,355.471,396.9,352.71z"/>
<g>
</g>
<g>
</g>
<g>
</g>
<g>
</g>
<g>
</g>
<g>
</g>
<g>
</g>
<g>
</g>
<g>
</g>
<g>
</g>
<g>
</g>
<g>
</g>
<g>
</g>
<g>
</g>
<g>
</g>
</svg>
